<svg xmlns="http://www.w3.org/2000/svg" viewBox="0 0 512 512">
  <defs>
    <linearGradient id="bg" x1="0" y1="0" x2="1" y2="1">
      <stop offset="0" stop-color="#0a0a0a"/>
      <stop offset="1" stop-color="#1d1d1d"/>
    </linearGradient>
  </defs>
  <rect width="512" height="512" rx="96" fill="url(#bg)"/>
  <g fill="#f97316">
    <path d="M128 360 V152 h36 v82 h64 v-82 h36 v208 h-36 v-90 h-64 v90 z"/>
    <path d="M312 360 v-208 h70 c34 0 56 22 56 56 0 24 -12 42 -32 51 l38 101 h-40 l-34 -94 h-22 v94 z M348 234 h32 c14 0 22 -10 22 -26 0 -16 -8 -26 -22 -26 h-32 z"/>
  </g>
  <circle cx="438" cy="74" r="22" fill="#f97316"/>
</svg>
